<svg width="319" height="337" viewBox="0 0 319 337" fill="none" xmlns="http://www.w3.org/2000/svg">
<g opacity="0.6" clip-path="url(#clip0_0_8165)">
<path d="M0.0648647 222.75L89.6748 221.836L85.8777 242.792L146.624 257.915L59.0084 265.428L64.98 241.933L0.0648647 222.75Z" fill="url(#paint0_linear_0_8165)"/>
<path d="M256.727 69.2119L279.243 134.914L262.903 137.232L266.584 185.607L239.702 122.982L258.44 121.65L256.727 69.2119Z" fill="url(#paint1_linear_0_8165)"/>
<path d="M114.971 122.15L160.309 146.952L152.492 156.422L178.786 181.157L132.597 160.233L142.217 150.1L114.971 122.15Z" fill="url(#paint2_linear_0_8165)"/>
</g>
<defs>
<linearGradient id="paint0_linear_0_8165" x1="16.7861" y1="199.582" x2="129.838" y2="281.173" gradientUnits="userSpaceOnUse">
<stop stop-color="#1C222E"/>
<stop offset="1" stop-color="#46587B"/>
</linearGradient>
<linearGradient id="paint1_linear_0_8165" x1="230.797" y1="105.139" x2="292.513" y2="149.68" gradientUnits="userSpaceOnUse">
<stop stop-color="#1C222E"/>
<stop offset="1" stop-color="#46587B"/>
</linearGradient>
<linearGradient id="paint2_linear_0_8165" x1="110.832" y1="127.885" x2="180.793" y2="178.377" gradientUnits="userSpaceOnUse">
<stop stop-color="#1C222E"/>
<stop offset="1" stop-color="#46587B"/>
</linearGradient>
<clipPath id="clip0_0_8165">
<rect width="274.815" height="194.376" fill="white" transform="matrix(-0.585223 0.810872 0.810872 0.585223 160.828 0)"/>
</clipPath>
</defs>
</svg>
